<?xml version="1.0" encoding="utf-8"?>
<!-- Generator: Adobe Illustrator 25.4.0, SVG Export Plug-In . SVG Version: 6.00 Build 0)  -->
<svg version="1.1" id="레이어_1" xmlns="http://www.w3.org/2000/svg" xmlns:xlink="http://www.w3.org/1999/xlink" x="0px"
	 y="0px" viewBox="0 0 248.824 60.556" style="enable-background:new 0 0 248.824 60.556;" xml:space="preserve">
<style type="text/css">
	.st0{fill:#00ABEB;}
	.st1{fill:#DCE1EC;}
</style>
<g>
	<g>
		<path class="st0" d="M21.217,36.392h18.911c-1.55,4.817-4.92,8.84-9.276,11.275c-2.857,1.589-6.15,2.498-9.635,2.498
			c-10.967,0-19.885-8.93-19.885-19.898c0-5.407,2.178-10.314,5.702-13.901c3.6-3.69,8.636-5.971,14.183-5.971
			c5.407,0,10.314,2.165,13.901,5.689c2.614,2.55,4.523,5.83,5.42,9.494h-7.944c-0.641-1.576-1.602-2.985-2.819-4.138
			c-2.217-2.165-5.227-3.485-8.559-3.485c-3.472,0-6.611,1.448-8.853,3.754c-2.14,2.217-3.472,5.24-3.472,8.559
			c0,6.803,5.535,12.325,12.325,12.325c1.973,0,3.831-0.461,5.484-1.294L21.217,36.392z"/>
		<g>
			<g>
				<path class="st1" d="M41.871,8.422L38.693,11.6c-4.715-4.497-10.852-7.008-17.348-7.111h-0.538
					c-6.598,0-12.825,2.498-17.63,7.111L0,8.422c5.766-5.548,13.389-8.559,21.409-8.418C29.084,0.12,36.323,3.105,41.871,8.422z"/>
			</g>
		</g>
		<g>
			<g>
				<path class="st1" d="M41.871,52.138c-5.548,5.317-12.787,8.302-20.461,8.418h-0.512c-7.854,0-15.247-2.985-20.897-8.418
					l3.177-3.177c4.894,4.676,11.262,7.201,18.155,7.111c6.509-0.103,12.646-2.614,17.361-7.111L41.871,52.138z"/>
			</g>
		</g>
	</g>
	<g>
		<path class="st1" d="M47.619,29.987c0,8.151,5.871,14.33,13.866,14.33h15.488v-6.025H61.485c-4.557,0-7.841-3.361-7.841-7.995
			c0-4.675,3.322-8.033,7.841-8.033h15.488v-6.027H61.485C53.49,16.237,47.619,21.723,47.619,29.987z"/>
		<path class="st1" d="M101.771,27.671H89.142c-1.66,0-2.743-0.966-2.743-2.705c0-1.737,1.043-2.703,2.743-2.703h20.316v-6.027
			H89.142c-5.833,0-8.999,3.476-8.999,8.112c0,4.75,3.399,8.072,8.922,8.072h12.706c2.164,0,3.399,1.081,3.399,2.974
			c0,1.777-1.235,2.897-3.399,2.897H80.568v6.025h21.203c6.104,0,9.078-3.592,9.078-8.42
			C110.849,30.297,107.681,27.671,101.771,27.671z"/>
		<path class="st0" d="M135.879,27.671H123.25c-1.66,0-2.743-0.966-2.743-2.705c0-1.737,1.043-2.703,2.743-2.703h20.316v-6.027
			H123.25c-5.833,0-8.999,3.476-8.999,8.112c0,4.75,3.399,8.072,8.922,8.072h12.706c2.164,0,3.399,1.081,3.399,2.974
			c0,1.777-1.235,2.897-3.399,2.897h-21.203v6.025h21.203c6.104,0,9.078-3.592,9.078-8.42
			C144.957,30.297,141.788,27.671,135.879,27.671z"/>
		<path class="st0" d="M147.971,29.987c0,8.151,5.871,14.33,13.866,14.33h15.488v-6.025h-15.488c-4.557,0-7.841-3.361-7.841-7.995
			c0-4.675,3.322-8.033,7.841-8.033h15.488v-6.027h-15.488C153.842,16.237,147.971,21.723,147.971,29.987z"/>
		<path class="st0" d="M197.876,15.852c-1.314,0-2.203,0.771-2.897,1.931l-15.952,26.534h6.837l3.918-6.643h3.921h7.371h4.486
			l3.94,6.643h7.224l-15.951-26.534C200.077,16.623,199.188,15.852,197.876,15.852z M196.447,33l-0.017,0.029h-3.907l5.12-8.68
			L202.782,33H196.447z"/>
		<path class="st0" d="M243.068,15.967v18.695L224.683,17.01c-0.848-0.812-1.545-1.12-2.434-1.12c-1.853,0-3.013,1.351-3.013,3.553
			v24.874h5.717V25.623l18.385,17.923c0.812,0.81,1.545,1.158,2.472,1.158c1.777,0,3.013-1.352,3.013-3.592V15.967H243.068z"/>
	</g>
</g>
</svg>
