<?xml version="1.0" encoding="utf-8"?>
<!-- Generator: Adobe Illustrator 25.4.0, SVG Export Plug-In . SVG Version: 6.00 Build 0)  -->
<svg version="1.1" id="레이어_1" xmlns="http://www.w3.org/2000/svg" xmlns:xlink="http://www.w3.org/1999/xlink" x="0px"
	 y="0px" viewBox="0 0 106.639 25.953" style="enable-background:new 0 0 106.639 25.953;" xml:space="preserve">
<style type="text/css">
	.st0{fill:#00ABEB;}
	.st1{fill:#DCE1EC;}
</style>
<g>
	<g>
		<path class="st0" d="M9.093,15.596h8.105c-0.664,2.065-2.109,3.789-3.975,4.832c-1.224,0.681-2.636,1.071-4.129,1.071
			c-4.7,0-8.522-3.827-8.522-8.528c0-2.317,0.933-4.42,2.444-5.958c1.543-1.581,3.701-2.559,6.079-2.559
			c2.317,0,4.42,0.928,5.958,2.438c1.12,1.093,1.938,2.498,2.323,4.069h-3.404c-0.275-0.675-0.686-1.279-1.208-1.774
			c-0.95-0.928-2.24-1.494-3.668-1.494c-1.488,0-2.833,0.62-3.794,1.609c-0.917,0.95-1.488,2.246-1.488,3.668
			c0,2.916,2.372,5.282,5.282,5.282c0.846,0,1.642-0.198,2.35-0.555L9.093,15.596z"/>
		<g>
			<g>
				<path class="st1" d="M17.945,3.61l-1.362,1.362c-2.021-1.927-4.651-3.004-7.435-3.048H8.917c-2.828,0-5.497,1.071-7.556,3.048
					L0,3.61c2.471-2.378,5.738-3.668,9.175-3.608C12.465,0.051,15.567,1.331,17.945,3.61z"/>
			</g>
		</g>
		<g>
			<g>
				<path class="st1" d="M17.945,22.345c-2.378,2.279-5.48,3.558-8.769,3.608h-0.22c-3.366,0-6.534-1.279-8.956-3.608l1.362-1.362
					c2.098,2.004,4.827,3.086,7.781,3.048c2.789-0.044,5.42-1.12,7.44-3.048L17.945,22.345z"/>
			</g>
		</g>
	</g>
	<g>
		<path class="st1" d="M20.408,12.852c0,3.493,2.516,6.141,5.943,6.141h6.638v-2.582h-6.638c-1.953,0-3.36-1.44-3.36-3.426
			c0-2.003,1.424-3.443,3.36-3.443h6.638V6.959h-6.638C22.924,6.959,20.408,9.31,20.408,12.852z"/>
		<path class="st1" d="M43.616,11.859h-5.413c-0.712,0-1.176-0.414-1.176-1.159c0-0.745,0.447-1.158,1.176-1.158h8.707V6.959h-8.707
			c-2.5,0-3.857,1.49-3.857,3.477c0,2.036,1.457,3.459,3.824,3.459h5.446c0.927,0,1.457,0.463,1.457,1.275
			c0,0.762-0.529,1.242-1.457,1.242h-9.087v2.582h9.087c2.616,0,3.891-1.539,3.891-3.609C47.507,12.984,46.149,11.859,43.616,11.859
			z"/>
		<path class="st0" d="M58.234,11.859h-5.413c-0.711,0-1.176-0.414-1.176-1.159c0-0.745,0.447-1.158,1.176-1.158h8.707V6.959h-8.707
			c-2.5,0-3.857,1.49-3.857,3.477c0,2.036,1.457,3.459,3.824,3.459h5.445c0.927,0,1.457,0.463,1.457,1.275
			c0,0.762-0.529,1.242-1.457,1.242h-9.087v2.582h9.087c2.616,0,3.891-1.539,3.891-3.609C62.124,12.984,60.766,11.859,58.234,11.859
			z"/>
		<path class="st0" d="M63.416,12.852c0,3.493,2.516,6.141,5.943,6.141h6.638v-2.582h-6.638c-1.953,0-3.36-1.44-3.36-3.426
			c0-2.003,1.424-3.443,3.36-3.443h6.638V6.959h-6.638C65.932,6.959,63.416,9.31,63.416,12.852z"/>
		<path class="st0" d="M84.804,6.794c-0.563,0-0.944,0.331-1.242,0.828l-6.836,11.372h2.93l1.679-2.847h1.68h3.159h1.923
			l1.688,2.847h3.096L86.046,7.621C85.747,7.124,85.366,6.794,84.804,6.794z M84.192,14.143l-0.007,0.013H82.51l2.194-3.72
			l2.202,3.708H84.192z"/>
		<path class="st0" d="M104.172,6.843v8.012L96.293,7.29c-0.364-0.348-0.662-0.48-1.043-0.48c-0.794,0-1.291,0.579-1.291,1.523
			v10.66h2.45v-8.012l7.879,7.681c0.348,0.347,0.662,0.496,1.059,0.496c0.762,0,1.291-0.58,1.291-1.539V6.843H104.172z"/>
	</g>
</g>
</svg>
